<?xml version="1.0" encoding="UTF-8"?>
<svg id="Layer_1" xmlns="http://www.w3.org/2000/svg" version="1.1" viewBox="0 0 274.14 493.15">
  <!-- Generator: Adobe Illustrator 30.0.0, SVG Export Plug-In . SVG Version: 2.1.1 Build 123)  -->
  <defs>
    <style>
      .st0 {
        fill: #203664;
      }
    </style>
  </defs>
  <g>
    <path class="st0" d="M180.21,410.03v-6.37h-.02v-.26l-11.01-5.9-7.2-48.61-11.01-74.44v-40.84l11.01-8.5-29.12-17.85h0l18.11-3.08-.08-.06-18.02-11.93-.02-.02h0l18.13-3.08-18.1-11.96-.06-.04h.03l18.13-3.08-25.29-22.71,18.09-26.58v34.26l13.69-10.26,29.96,18.16v-12.79l-18.19-11.05v-44.51l-.04.05v-.02l-18.19,25.46-.02-25.63h-.02l-72.33,95.96c-.57,3.15-.78,6.3-.3,9.42.53,3.54,1.92,6.86,3.87,9.99.16.25.31.49.47.72,1.78,2.7,3.99,5.27,6.45,7.73,3.19,3.21,6.82,6.25,10.49,9.21,2.09,1.69,4.2,3.34,6.27,4.98.21.17.44.35.65.52,3.68,2.99,7.33,6.23,10.49,9.66,2.78,3.04,5.19,6.24,6.91,9.56,2.5,4.82,3.56,9.88,2.25,15.06-.31,1.23-.84,2.53-2.14,3.24-.04.02-.07.04-.11.06-1.55.8-3.62.55-5.4.12-.5-.12-1.01-.26-1.51-.41-4.02-1.18-7.66-3.14-10.49-5.65-.44-.39-.88-.81-1.28-1.23-2.28,1.74-4.1,4.14-5.63,6.84-4.78,8.44-6.74,19.99-10.49,25-.29.39-.59.74-.9,1.04l-6.02,5.87c-3.49,3.41-6.98,6.82-10.48,10.23-2.3,2.25-4.61,4.49-6.92,6.75-3.49,3.4-6.99,6.81-10.48,10.22-2.3,2.25-4.61,4.5-6.92,6.74-2.11,2.06-4.24,4.13-6.35,6.19-1.52,1.48-3.06,2.98-4.85,4.25-.88.63-1.82,1.19-2.85,1.68-1.26.59-2.64,1.04-4.07,1.32-3.08.62-6.42.5-9.42-.39-2.66-.8-5.9-2.11-8.05-.66-3.44,2.33,1.89,6,3.76,9.24,2.62,4.56-2.49,9.31-5.07,13.9-6.32,11.25,3.11,23.11,7.71,35.25.21.55.41,1.12.6,1.67.72,2.14,1.27,4.29,1.51,6.43h214.88c3.13-2.68,6.19-5.37,9.15-8.1.28-.25.56-.52.84-.78h-65,0ZM143.77,410.02v-12.36l-28.98-1.61,10.84-29.78-.03-.03.07-.18-10.91-13.37-18.03-6.35,17.98-21.01,10.93-3.45,35.55,88.15h-17.42Z"/>
    <path class="st0" d="M202.5,447.44l-8.12,8.64H19.04c-.25-.42-.49-.85-.72-1.27-.58-1.09-1.05-2.21-1.4-3.38-.4-1.32-.63-2.65-.71-3.98h186.29,0Z"/>
    <path class="st0" d="M223.43,428.85l-10.13,8.64H17.4c.04-.18.09-.36.13-.54.67-2.69,1.47-5.39,2.07-8.1h203.83Z"/>
    <path class="st0" d="M27.8,466.02h159.02l-22.98,5.9h-.02l-10.68,2.74H36.56l-8.77-8.64h.01Z"/>
    <path class="st0" d="M110.76,484.59c-13,2.33-25.97,4.47-34.69,5.89-1.27.21-2.45.39-3.54.57-7.3,1.18-15.7,1.96-22.05-.57-1.37-.54-2.65-1.24-3.81-2.13-1.42-1.1-2.51-2.39-3.45-3.76h67.54Z"/>
    <polygon class="st0" points="180.22 149.69 180.22 149.69 180.22 149.69 180.22 149.69"/>
    <path class="st0" d="M89.4,109.29h0Z"/>
    <path class="st0" d="M209.11,69.43c1.09,5.07-3,9.52-6.37,14.15-.77,1.05-1.51,2.12-2.12,3.21l-37.46-40.29-85.05,107.11c-.67-.99-1.29-2-1.78-3.06-3.49-7.53,0-15.79,1.61-23.71.4-1.97.67-4.01,0-5.93-.68-1.95-2.29-3.62-3.9-5.22-.76-.76-1.54-1.52-2.31-2.27-2.25-2.2-4.56-4.36-6.92-6.5-3.4-3.07-6.88-6.06-10.48-8.98-2.26-1.85-4.57-3.67-6.92-5.44-3.64-2.78-7.38-5.49-11.2-8.12-2.27-1.56-4.58-3.11-6.92-4.61-6.98-4.52-14.22-8.79-21.71-12.79-4.38-2.34-9.2-7.14-5.21-9.87,1.68-1.16,4.26-1.15,6.05-2.19,2.67-1.55,2.59-4.61,3.65-7.06,2.02-4.69,9.55-7.38,15.43-5.54,5.87,1.84,8.88,7.86,6.18,12.33,1.91,2.55,8.2,11.1,13.73,17.49,2.68,3.11,5.19,5.7,6.92,6.84.21.14.4.25.58.35,2.91,1.49,6.43,2.4,9.89,2.42,2.36.02,4.67-.39,6.74-1.3.07-.02.12-.06.18-.09,3.66-1.67,6.63-4.82,10.48-5.57.69-.14,1.41-.19,2.17-.15,1.81.1,3.36.75,4.75,1.69,3.78,2.51,6.48,7.07,10.49,8.34,1.02.32,2.11.44,3.33.26,1.37-.2,2.54-.78,3.59-1.52.86-.62,1.64-1.36,2.34-2.08,3.01-3.06,5.73-6.29,8.14-9.66,2.71-3.8,5.03-7.76,6.91-11.86,2.23-4.83,3.86-9.82,4.84-14.9,1.24-6.42,1.51-13.04,4.6-19.06,2.54-4.97,6.99-9.33,12.61-12.38,3.73-2.02,7.9-3.47,12.06-4.9,6.94-2.39,13.88-4.77,20.82-7.16.76-.26,1.55-.53,2.38-.53,1.36,0,2.51.72,3.54,1.39,7.41,4.8,14.82,9.6,22.22,14.39,3.31,2.15,6.72,4.39,8.58,7.42,7.42,12.13-14.16,25.41-9.55,38.37.85,2.37,2.57,4.56,3.09,6.98h0Z"/>
    <polygon class="st0" points="234.91 207.06 205.65 190.04 205.65 177.76 187.43 166.81 187.43 189.01 216.68 206.24 216.68 225.07 234.91 207.06"/>
    <polygon class="st0" points="180.22 173.93 169.19 189.01 180.22 189.01 180.22 173.93"/>
    <polygon class="st0" points="216.68 225.07 162 225.08 187.43 233.77 216.68 225.07"/>
  </g>
  <path class="st0" d="M60.85,493.06c-3.76,0-7.48-.45-10.71-1.74-1.47-.58-2.83-1.33-4.02-2.25-2.43-1.87-3.89-4.2-5.19-6.43l-.53-.91c-.54-.94-1.1-1.91-1.7-2.82-1.18-1.78-2.69-3.63-4.64-5.64-1.69-1.74-3.54-3.47-5.32-5.14-1.12-1.04-2.24-2.08-3.32-3.13-2.79-2.71-5.91-5.98-7.9-9.78-.62-1.17-1.12-2.36-1.46-3.54-.49-1.66-.76-3.35-.79-5.17-.07-3.42.66-6.87,1.39-9.79.25-1.03.53-2.05.81-3.08.45-1.7.93-3.46,1.3-5.19.66-3.03.92-5.49.82-7.76-.02-.5-.06-1-.12-1.51-.22-1.99-.72-4.1-1.5-6.43-.19-.54-.39-1.09-.59-1.64-1.1-2.91-2.52-5.86-3.88-8.72-4.32-9.03-8.78-18.37-3.77-27.3.64-1.14,1.44-2.3,2.21-3.42,2.34-3.41,4.56-6.62,2.86-9.58-.49-.86-1.31-1.81-2.09-2.73-1.62-1.9-3.14-3.69-2.9-5.52.12-.86.63-1.6,1.51-2.2,2.25-1.51,5.19-.59,7.8.22.35.11.69.21,1.03.31,2.8.84,5.99.96,8.98.37,1.38-.27,2.68-.7,3.86-1.25.92-.44,1.81-.95,2.71-1.6,1.76-1.25,3.27-2.73,4.75-4.16l13.27-12.94c3.49-3.41,6.99-6.83,10.48-10.22,1.54-1.51,3.08-3.02,4.63-4.52l2.29-2.23c3.49-3.41,6.99-6.83,10.48-10.22,1.34-1.32,2.68-2.62,4.03-3.93l1.99-1.94c.27-.26.54-.58.81-.94,1.82-2.43,3.27-6.7,4.8-11.2,1.51-4.44,3.22-9.48,5.62-13.7,1.77-3.11,3.68-5.44,5.86-7.12l.65-.5.57.6c.35.37.75.76,1.23,1.18,2.74,2.43,6.25,4.32,10.14,5.45.49.15.98.29,1.46.39,2.15.52,3.71.5,4.77-.05l.07-.03c.84-.46,1.34-1.26,1.71-2.67,1.17-4.62.46-9.34-2.17-14.42-1.55-3-3.83-6.15-6.77-9.36-2.79-3.04-6.19-6.18-10.39-9.57l-.65-.53c-.85-.68-1.71-1.37-2.58-2.06-1.23-.97-2.45-1.94-3.68-2.93-3.33-2.69-7.2-5.89-10.56-9.27-2.71-2.71-4.86-5.29-6.56-7.87-.16-.25-.33-.5-.49-.76-2.16-3.44-3.47-6.82-4.01-10.32-1-6.63,1-13.35,2.94-19.84.33-1.09.65-2.2.96-3.28.81-2.83,1.67-6.16,1.96-9.41.39-4.22-.23-7.84-1.89-11.06-.04-.08-.05-.12-.07-.14-.75-1.42-1.73-2.8-2.66-4.12-1.14-1.62-2.33-3.29-3.17-5.09-2.89-6.24-1.23-12.86.37-19.28.41-1.64.84-3.35,1.17-5,.37-1.82.63-3.73.03-5.44-.59-1.7-2.02-3.22-3.68-4.88-.76-.76-1.53-1.51-2.3-2.26-2.2-2.14-4.52-4.32-6.89-6.48-3.45-3.11-6.96-6.12-10.45-8.95-2.27-1.85-4.59-3.68-6.89-5.43-3.63-2.77-7.39-5.49-11.16-8.09-2.29-1.58-4.61-3.13-6.89-4.6-6.98-4.52-14.26-8.81-21.64-12.76C3.74,65.89.17,62.71,0,59.77c-.05-.95.23-2.33,1.88-3.45,1.02-.7,2.26-1.01,3.45-1.32.99-.25,1.92-.49,2.66-.9,1.56-.91,1.99-2.46,2.49-4.26.21-.78.44-1.6.77-2.37,2.2-5.08,10.23-8.02,16.53-6.04,3.4,1.07,6.1,3.51,7.25,6.56.85,2.25.76,4.56-.26,6.56l.17.24c2.42,3.26,8.09,10.87,13.16,16.74,2.99,3.45,5.25,5.69,6.73,6.68.19.13.35.22.51.3,2.89,1.47,6.25,2.29,9.48,2.31,2.33,0,4.49-.39,6.37-1.22l.17-.08c1.37-.63,2.69-1.51,3.96-2.35,2.06-1.37,4.2-2.8,6.72-3.28.78-.16,1.58-.21,2.39-.16,1.82.1,3.52.71,5.21,1.84,1.6,1.06,3,2.46,4.35,3.82,1.92,1.92,3.73,3.73,5.91,4.42.95.3,1.9.38,2.91.23,1.09-.16,2.13-.6,3.19-1.36.7-.49,1.38-1.1,2.23-1.97,2.95-3,5.66-6.22,8.05-9.55,2.67-3.74,4.97-7.68,6.83-11.7,2.21-4.78,3.82-9.72,4.78-14.7.31-1.63.58-3.31.82-4.93.74-4.8,1.5-9.76,3.86-14.36,2.61-5.1,7.22-9.63,12.99-12.77,3.83-2.08,8.09-3.54,12.2-4.96,5.62-1.92,11.22-3.86,16.84-5.79l3.98-1.37c.79-.27,1.69-.58,2.67-.58,1.67,0,3.04.89,4.04,1.54l22.22,14.39c3.22,2.08,6.86,4.45,8.85,7.71,4.16,6.8-.1,13.83-4.21,20.64-3.59,5.95-7.31,12.09-5.25,17.89.34.95.82,1.86,1.34,2.83.72,1.35,1.46,2.75,1.78,4.27,1.04,4.8-2.12,9-5.17,13.05-.45.61-.91,1.21-1.36,1.83-2.15,2.96-3.62,5.49-3.82,8.2-.56,7.72,9.75,13.46,15.95,16.19,1.17.52,2.37,1.02,3.57,1.54,7.54,3.2,15.34,6.51,19.22,12.52,7.2,11.14-3.02,23.68-11.24,33.76l-.29.35c-3.39,4.17-6.46,8.66-6,13.22.3,2.94,2.06,5.77,3.78,8.52l.41.67c7.06,11.43,23.69,39.97,25.73,58l.14,1.2-1.19-.21c-5.13-.87-16.63,7.5-18.92,11.33-2.34,3.92-2.27,8.6-2.2,12.72.08,5.37.55,10.89,5.28,14.14.92.63,2.02,1.18,3.08,1.71,1.85.92,3.77,1.88,5.06,3.39,2.81,3.31,1.38,7.13,0,10.82-.55,1.46-1.12,2.97-1.37,4.38-.86,4.68,1.61,9.19,4.22,13.96,2.65,4.83,5.38,9.82,4.43,15.13-.43,2.39-1.58,4.61-2.7,6.76-1.28,2.48-2.5,4.81-2.63,7.29-.26,4.84,6.2,8.13,13.04,11.61,5.25,2.67,10.68,5.44,13.28,9.18,9.43,13.53-.59,24.64-8.64,33.57-1.18,1.31-2.29,2.55-3.34,3.77h0c-3.66,4.3-8.03,8.78-13.34,13.68-2.77,2.56-5.85,5.28-9.39,8.32-2.83,2.43-5.75,4.87-8.58,7.24l-2.76,2.32c-2.9,2.43-6.32,5.31-9.73,8.28-4.01,3.49-7.41,6.6-10.41,9.51-2.98,2.88-5.57,5.58-7.92,8.25-2.89,3.25-5.33,6.34-7.48,9.46-.33.47-.65.95-.96,1.42-1.85,2.8-3.97,5.6-6.96,7.16-1.51.79-3.16,1.18-4.81,1.15-1.52-.02-2.93-.4-4.29-.77-.38-.1-.76-.21-1.14-.3l-.28-.07c-3.63-.88-7.71-.86-11.48.07-3,.72-5.72,1.98-7.85,3.64l-.14.12-.17.05c-5.44,1.5-14.39,3.43-26.57,5.76-17.47,3.31-37.46,6.62-47.81,8.3l-3.54.57c-3.61.58-7.74,1.12-11.82,1.12l-.04-.02-.03-.07ZM14.2,352.68c-.71,0-1.35.14-1.88.49-.66.44-.71.81-.72.94-.14,1.02,1.25,2.66,2.48,4.1.84.98,1.7,2,2.28,3,2.27,3.96-.49,7.98-2.94,11.52-.78,1.14-1.52,2.2-2.12,3.27-4.55,8.11-.49,16.61,3.82,25.62,1.38,2.89,2.81,5.88,3.94,8.87.21.57.42,1.14.61,1.69.83,2.46,1.35,4.69,1.59,6.82.06.54.1,1.08.12,1.62.11,2.42-.16,5.03-.86,8.22-.39,1.77-.86,3.55-1.32,5.27-.27,1.02-.54,2.03-.8,3.05-.7,2.8-1.41,6.09-1.33,9.3.03,1.65.26,3.18.72,4.68.32,1.07.76,2.15,1.33,3.22,1.88,3.58,4.87,6.72,7.56,9.32,1.08,1.04,2.19,2.07,3.3,3.11,1.81,1.69,3.68,3.42,5.4,5.21,2.02,2.1,3.61,4.02,4.84,5.9.63.95,1.2,1.95,1.76,2.9l.53.91c1.21,2.08,2.57,4.24,4.73,5.91,1.06.81,2.27,1.49,3.59,2,6.34,2.53,14.86,1.6,21.57.52l3.54-.57c10.35-1.68,30.31-4.98,47.76-8.29,12.02-2.29,20.85-4.19,26.26-5.68,2.32-1.77,5.21-3.1,8.4-3.87,4.05-.99,8.44-1.01,12.35-.07l.28.07c.39.1.78.2,1.17.3,1.32.35,2.57.69,3.85.72,1.39,0,2.69-.29,3.94-.95,2.62-1.37,4.56-3.96,6.28-6.55.32-.49.65-.98.99-1.46,2.19-3.17,4.68-6.32,7.62-9.63,2.39-2.71,5.01-5.44,8.02-8.36,3.03-2.94,6.46-6.07,10.49-9.58,3.41-2.98,6.85-5.87,9.75-8.31l2.76-2.32c2.82-2.36,5.74-4.8,8.56-7.22,3.53-3.03,6.59-5.73,9.34-8.27,5.26-4.85,9.57-9.27,13.19-13.52h0c1.06-1.24,2.18-2.49,3.37-3.81,8.01-8.89,17.1-18.97,8.5-31.31-2.34-3.37-7.57-6.03-12.62-8.6-7.06-3.59-14.36-7.31-14.04-13.33.15-2.86,1.51-5.49,2.83-8.03,1.1-2.12,2.15-4.13,2.53-6.24.84-4.68-1.62-9.18-4.24-13.93-2.65-4.84-5.4-9.85-4.42-15.17.29-1.57.89-3.15,1.46-4.69,1.32-3.5,2.44-6.51.32-9.01-1.04-1.23-2.71-2.06-4.47-2.94-1.12-.56-2.28-1.14-3.31-1.83-5.44-3.74-5.99-10.02-6.07-15.61-.07-4.36-.15-9.31,2.47-13.68,2.45-4.09,13.32-12.11,19.59-12.26-2.53-17.71-18.48-45.06-25.33-56.17l-.41-.66c-1.82-2.92-3.69-5.95-4.04-9.29-.53-5.21,2.76-10.08,6.4-14.55l.29-.35c8.25-10.12,17.59-21.6,11.11-31.62-3.59-5.54-11.12-8.74-18.41-11.84-1.21-.51-2.42-1.03-3.59-1.55-6.64-2.93-17.67-9.15-17.03-17.99.24-3.32,2.14-6.36,4.16-9.14.45-.62.91-1.23,1.37-1.85,2.94-3.9,5.71-7.58,4.85-11.57-.28-1.27-.93-2.5-1.62-3.8-.53-.99-1.06-2.01-1.45-3.08-2.35-6.61,1.59-13.14,5.4-19.44,4.01-6.64,7.8-12.9,4.22-18.75-1.78-2.9-5.24-5.15-8.29-7.13l-22.22-14.39c-1.05-.68-2.01-1.25-3.05-1.25-.68,0-1.39.25-2.08.48l-3.98,1.37c-5.61,1.93-11.22,3.87-16.84,5.79-4.04,1.39-8.22,2.84-11.93,4.84-5.44,2.96-9.79,7.22-12.23,11.99-2.23,4.34-2.97,9.15-3.68,13.81-.25,1.64-.51,3.34-.84,5.01-.99,5.12-2.64,10.2-4.91,15.11-1.9,4.13-4.25,8.17-6.99,12.01-2.44,3.41-5.21,6.7-8.22,9.76-.92.95-1.69,1.63-2.48,2.19-1.3.93-2.6,1.48-3.98,1.68-1.29.19-2.51.1-3.73-.3-2.6-.82-4.66-2.88-6.64-4.87-1.29-1.29-2.62-2.62-4.07-3.59-1.41-.95-2.82-1.46-4.29-1.54-.66-.03-1.31,0-1.94.13-2.16.42-4.05,1.68-6.05,3.02-1.33.89-2.71,1.81-4.22,2.49-.08.04-.16.08-.24.12-2.06.91-4.47,1.38-7.06,1.36-3.5-.02-7.16-.9-10.31-2.52-.22-.12-.45-.25-.69-.41-1.6-1.06-4-3.41-7.09-6.99-5.12-5.91-10.81-13.57-13.24-16.84l-.89-1.19.32-.53c1-1.64,1.14-3.6.42-5.52-.95-2.52-3.22-4.56-6.09-5.46-5.4-1.69-12.49.8-14.32,5.03-.29.66-.49,1.37-.69,2.14-.53,1.91-1.13,4.06-3.33,5.35-.96.55-2.06.83-3.13,1.09-1.09.27-2.12.53-2.87,1.05-1.03.71-1.11,1.4-1.09,1.86.12,2.1,3.29,4.89,6.22,6.46,7.42,3.96,14.75,8.28,21.77,12.83,2.29,1.48,4.63,3.03,6.94,4.63,3.8,2.62,7.58,5.35,11.24,8.14,2.32,1.77,4.66,3.6,6.94,5.46,3.5,2.85,7.04,5.88,10.51,9.01,2.4,2.17,4.74,4.37,6.94,6.52.77.76,1.55,1.51,2.32,2.28,1.83,1.83,3.39,3.5,4.11,5.57.75,2.14.46,4.34.03,6.41-.34,1.69-.77,3.41-1.18,5.07-1.53,6.1-3.1,12.41-.49,18.07.76,1.65,1.85,3.18,3,4.8.97,1.37,1.98,2.8,2.77,4.29l.12.24c1.8,3.48,2.48,7.42,2.06,12-.3,3.4-1.18,6.83-2.02,9.75-.31,1.1-.64,2.2-.97,3.31-1.88,6.3-3.82,12.82-2.88,19.05.49,3.25,1.72,6.4,3.75,9.63.15.25.3.48.45.71,1.64,2.48,3.72,4.97,6.33,7.59,3.31,3.32,7.11,6.48,10.41,9.14,1.22.99,2.44,1.96,3.66,2.92.87.69,1.74,1.37,2.6,2.06l.66.53c4.27,3.45,7.73,6.65,10.59,9.75,3.05,3.32,5.42,6.6,7.05,9.75,2.81,5.41,3.59,10.7,2.32,15.7-.34,1.3-.93,2.9-2.58,3.81-.04.02-.1.06-.16.08-1.46.74-3.42.8-6,.19-.52-.12-1.04-.27-1.56-.43-4.14-1.22-7.89-3.23-10.82-5.84-.27-.24-.52-.47-.75-.69-1.74,1.49-3.3,3.48-4.77,6.07-2.31,4.07-3.99,9.02-5.48,13.39-1.58,4.65-3.08,9.04-5.07,11.7-.33.44-.67.82-1,1.14l-1.99,1.94c-1.34,1.31-2.69,2.62-4.02,3.93-3.5,3.41-6.99,6.82-10.48,10.23l-2.29,2.23c-1.55,1.51-3.09,3.01-4.63,4.52-3.5,3.41-6.99,6.82-10.48,10.22l-13.27,12.94c-1.45,1.41-3.08,3-4.96,4.34-1,.71-1.97,1.28-2.99,1.76-1.31.62-2.76,1.09-4.28,1.39-3.28.66-6.78.51-9.85-.41-.34-.1-.69-.21-1.05-.32-1.45-.45-3.02-.95-4.35-.95l-.03.07v.06Z"/>
</svg>