<?xml version="1.0" encoding="UTF-8"?>
<svg id="Layer_1" xmlns="http://www.w3.org/2000/svg" version="1.1" viewBox="0 0 1336 470.3">
  <!-- Generator: Adobe Illustrator 30.6.0, SVG Export Plug-In . SVG Version: 2.1.4 Build 109)  -->
  <defs>
    <style>
      .st0 {
        fill: #101626;
      }

      .st1 {
        fill: #203663;
      }
    </style>
  </defs>
  <g>
    <path class="st0" d="M429.6,319.8h19.4l6.5,29.8h.6l11.2-15.5h.8l11.2,15.5h.6l6.5-29.8h19.4l-12.7,54h-16.5l-8.8-14.3h-.3l-8.6,14.3h-16.5l-12.7-54h0Z"/>
    <path class="st0" d="M549.2,319.8h18v54h-18v-54Z"/>
    <path class="st0" d="M660.8,359.6v14.3h-46.1v-54h18v39.7h28.1Z"/>
    <path class="st0" d="M764.3,346.4c0,17.7-15.2,27.4-26.5,27.4h-32.2v-54h32.8c13.3,0,25.9,10.1,25.9,26.6h0ZM746.1,346.4c0-8.7-5.5-12.3-13.8-12.3h-8.6v25.5h9.3c7.6,0,13.2-5.1,13.2-13.2h0Z"/>
    <path class="st0" d="M871.5,319.8h18.1l21.4,28.1h.5v-28.1h18.1v54h-18.1l-21.4-27.1h-.6v27.1h-18.1v-54h0Z"/>
    <path class="st0" d="M975.4,346.7c0-15.4,12.5-27.8,27.8-27.8s27.8,12.4,27.8,27.8-12.5,27.9-27.8,27.9-27.8-12.4-27.8-27.9ZM1013.2,346.7c0-5.5-4.5-9.9-9.9-9.9s-9.9,4.5-9.9,9.9,4.5,10,9.9,10,9.9-4.5,9.9-10Z"/>
    <path class="st0" d="M1103.6,353.8h-8.5v20h-18.1v-54h38.2c10.9,0,17.6,6.3,17.6,17.1s-4.8,13-11.2,15.5l13,21.4h-19.6l-11.4-20h0ZM1095.1,339.7h16.7c1.7,0,2.9-1.2,2.9-2.9s-1.2-2.8-2.9-2.8h-16.7v5.7Z"/>
    <path class="st0" d="M1193.8,334.1h-16v-14.3h50.1v14.3h-16v39.7h-18.1v-39.7h0Z"/>
    <path class="st0" d="M1330.8,319.8v54h-18.1v-19.9h-21.7v19.9h-18.1v-54h18.1v19.8h21.7v-19.8h18.1Z"/>
  </g>
  <g>
    <path class="st1" d="M193.4,386.1v-6.7h0v-.3l-11.6-6.2-7.6-51.4-11.6-78.7v-43.2l11.6-9-30.8-18.9h0l19.1-3.3h0c0,0-19-12.7-19-12.7h0s19.2-3.3,19.2-3.3l-19.1-12.6h0s0,0,0,0l19.2-3.3-26.8-24,19.1-28.1v36.2l14.5-10.9,31.7,19.2v-13.5l-19.2-11.7v-47.1h0c0,0,0,0,0,0l-19.2,26.9v-27.1h0l-83.8,111.2.5,14L0,307.5v80.7h0v7.3h280.5v-9.4h-87.1s0,0,0,0ZM154.9,386.1v-13.1l-30.6-1.7,11.5-31.5h0s0-.2,0-.2l-11.5-14.1-19.1-6.7,19-22.2,11.6-3.6,37.6,93.2h-18.4s0,0,0,0Z"/>
    <rect class="st1" x="0" y="424.2" width="280.5" height="8.7"/>
    <rect class="st1" x="0" y="405.5" width="280.5" height="8.7"/>
    <rect class="st1" x="0" y="442.9" width="280.5" height="8.7"/>
    <rect class="st1" x="0" y="461.6" width="280.5" height="8.7"/>
    <polygon class="st1" points="184.3 124.3 184.3 124.3 184.3 124.3 184.3 124.3"/>
    <path class="st1" d="M92.8,83.6"/>
    <polygon class="st1" points="0 0 0 163.4 74.3 63.6 107.1 99 167.1 20.3 280.5 142.3 280.5 0 0 0"/>
    <polygon class="st1" points="251.2 171.5 220.3 153.5 220.3 140.5 201 128.9 201 152.4 232 170.6 232 190.5 251.2 171.5"/>
    <polygon class="st1" points="193.4 136.4 181.8 152.4 193.4 152.4 193.4 136.4"/>
    <polygon class="st1" points="232 190.5 174.1 190.5 201 199.7 232 190.5"/>
  </g>
  <g>
    <path class="st0" d="M557.2,265.8l-4.1-6.2c-11.2,5.5-23.9,8.6-37.3,8.6-47.6,0-86.3-38.5-86.3-86.3s38.7-86.1,86.3-86.1,86.3,38.5,86.3,86.1-4.8,32.8-13.2,46.2l23.4,38-55.2-.2ZM522.6,212.2l-16.5-25.6h40.2c.2-1.7.5-3.1.5-4.8,0-17-13.9-30.9-30.9-30.9s-30.9,13.9-30.9,30.9,13.9,31.1,30.9,31.1,4.5-.2,6.7-.7Z"/>
    <path class="st0" d="M623.3,98.4h56v167.4h-56V98.4Z"/>
    <path class="st0" d="M697.2,98.4h56.7l37.5,53.1h1.9l37.5-53.1h56.7v167.4h-56v-87.5h-1.4l-36.8,48.6h-1.9l-36.8-48.6h-1.4v87.5h-56V98.4Z"/>
    <path class="st0" d="M904.3,98.4h56.7l37.5,53.1h1.9l37.5-53.1h56.7v167.4h-56v-87.5h-1.4l-36.8,48.6h-1.9l-36.8-48.6h-1.4v87.5h-56V98.4Z"/>
    <path class="st0" d="M1112.6,98.4h56v167.4h-56V98.4Z"/>
    <path class="st0" d="M1230.3,142.6h-49.7v-44.2h155.5v44.2h-49.7v123.2h-56v-123.2Z"/>
  </g>
</svg>