<?xml version="1.0" encoding="UTF-8"?>
<svg id="Layer_1" xmlns="http://www.w3.org/2000/svg" version="1.1" viewBox="0 0 541.5 880.7">
  <!-- Generator: Adobe Illustrator 30.6.0, SVG Export Plug-In . SVG Version: 2.1.4 Build 109)  -->
  <defs>
    <style>
      .st0 {
        fill: #101626;
      }
    </style>
  </defs>
  <g>
    <path class="st0" d="M0,848h11.6l3.9,17.8h.4l6.7-9.3h.5l6.7,9.3h.4l3.9-17.8h11.6l-7.6,32.3h-9.9l-5.2-8.5h-.2l-5.2,8.5H7.6L0,848h0Z"/>
    <path class="st0" d="M71.5,848h10.8v32.3h-10.8v-32.3Z"/>
    <path class="st0" d="M138.1,871.8v8.5h-27.6v-32.3h10.8v23.7h16.8,0Z"/>
    <path class="st0" d="M199.9,863.9c0,10.6-9.1,16.4-15.8,16.4h-19.2v-32.3h19.6c7.9,0,15.5,6,15.5,15.9h0ZM189.1,863.9c0-5.2-3.3-7.3-8.2-7.3h-5.2v15.2h5.5c4.5,0,7.9-3,7.9-7.9h0Z"/>
    <path class="st0" d="M264,848h10.8l12.8,16.8h.3v-16.8h10.8v32.3h-10.8l-12.8-16.2h-.4v16.2h-10.8v-32.3Z"/>
    <path class="st0" d="M326.1,864.1c0-9.2,7.5-16.6,16.6-16.6s16.6,7.4,16.6,16.6-7.5,16.6-16.6,16.6-16.6-7.4-16.6-16.6ZM348.7,864.1c0-3.3-2.7-5.9-5.9-5.9s-5.9,2.7-5.9,5.9,2.7,6,5.9,6,5.9-2.7,5.9-6Z"/>
    <path class="st0" d="M402.6,868.4h-5.1v11.9h-10.8v-32.3h22.8c6.5,0,10.5,3.8,10.5,10.2s-2.9,7.7-6.7,9.3l7.7,12.8h-11.7l-6.8-11.9h0ZM397.5,859.9h10c1,0,1.8-.7,1.8-1.8s-.7-1.7-1.8-1.7h-10v3.4Z"/>
    <path class="st0" d="M456.5,856.5h-9.6v-8.5h29.9v8.5h-9.6v23.7h-10.8v-23.7h0Z"/>
    <path class="st0" d="M538.4,848v32.3h-10.8v-11.9h-12.9v11.9h-10.8v-32.3h10.8v11.8h12.9v-11.8h10.8Z"/>
  </g>
  <g>
    <g>
      <path class="st0" d="M323.2,498.6v-7.8h0v-.3l-13.4-7.2-8.8-59.1-13.4-90.5v-49.7l13.4-10.3-35.4-21.7h0l22-3.8h0c0,0-21.9-14.6-21.9-14.6h0s22-3.8,22-3.8l-22-14.5h0s0,0,0,0l22-3.8-30.8-27.6,22-32.3v41.7l16.6-12.5,36.4,22.1v-15.5l-22.1-13.4v-54.1h0c0,0,0,0,0,0l-22.1,31v-31.2h0l-87.9,116.7c-.7,3.8-1,7.7-.4,11.5.7,4.3,2.3,8.3,4.7,12.1.2.3.4.6.6.9,2.2,3.3,4.8,6.4,7.8,9.4,3.9,3.9,8.3,7.6,12.8,11.2,2.5,2,5.1,4.1,7.6,6.1.3.2.5.4.8.6,4.5,3.6,8.9,7.6,12.8,11.8,3.4,3.7,6.3,7.6,8.4,11.6,3,5.9,4.3,12,2.7,18.3-.4,1.5-1,3.1-2.6,3.9,0,0,0,0-.1,0-1.9,1-4.4.7-6.6.2-.6-.1-1.2-.3-1.8-.5-4.9-1.4-9.3-3.8-12.8-6.9-.5-.5-1.1-1-1.6-1.5-2.8,2.1-5,5-6.8,8.3-5.8,10.3-8.2,24.3-12.8,30.4-.3.5-.7.9-1.1,1.3l-7.3,7.1c-4.2,4.1-8.5,8.3-12.7,12.4-2.8,2.7-5.6,5.5-8.4,8.2-4.2,4.1-8.5,8.3-12.7,12.4-2.8,2.7-5.6,5.5-8.4,8.2-2.6,2.5-5.2,5-7.7,7.5-1.8,1.8-3.7,3.6-5.9,5.2-1.1.8-2.2,1.5-3.5,2-1.5.7-3.2,1.3-5,1.6-3.8.8-7.8.6-11.5-.5-3.2-1-7.2-2.6-9.8-.8-4.2,2.8,2.3,7.3,4.6,11.2,3.2,5.5-3,11.3-6.2,16.9-7.7,13.7,3.8,28.1,9.4,42.9.2.7.5,1.4.7,2,.9,2.6,1.5,5.2,1.8,7.8h261.3c3.8-3.3,7.5-6.5,11.1-9.8.3-.3.7-.6,1-1h-79ZM278.9,498.5v-15l-35.2-2,13.2-36.2h0s0-.3,0-.3l-13.3-16.3-21.9-7.7,21.9-25.5,13.3-4.2,43.2,107.2h-21.2Z"/>
      <path class="st0" d="M350.3,544l-9.9,10.5H127.2c-.3-.5-.6-1-.9-1.5-.7-1.3-1.3-2.7-1.7-4.1-.5-1.6-.8-3.2-.9-4.8h226.5Z"/>
      <path class="st0" d="M375.7,521.4l-12.3,10.5H125.2c0-.2.1-.4.2-.7.8-3.3,1.8-6.5,2.5-9.8h247.8Z"/>
      <path class="st0" d="M137.9,566.6h193.3l-27.9,7.2h0l-13,3.3h-141.7l-10.7-10.5h0Z"/>
      <path class="st0" d="M238.7,589.2c-15.8,2.8-31.6,5.4-42.2,7.2-1.5.2-3,.5-4.3.7-8.9,1.4-19.1,2.4-26.8-.7-1.7-.7-3.2-1.5-4.6-2.6-1.7-1.3-3-2.9-4.2-4.6h82.1Z"/>
      <polygon class="st0" points="323.2 182 323.2 182 323.2 182 323.2 182"/>
      <path class="st0" d="M212.8,132.9"/>
      <path class="st0" d="M358.3,84.4c1.3,6.2-3.7,11.6-7.8,17.2-.9,1.3-1.8,2.6-2.6,3.9l-45.5-49-103.4,130.2c-.8-1.2-1.6-2.4-2.2-3.7-4.2-9.2,0-19.2,2-28.8.5-2.4.8-4.9,0-7.2-.8-2.4-2.8-4.4-4.7-6.4-.9-.9-1.9-1.9-2.8-2.8-2.7-2.7-5.5-5.3-8.4-7.9-4.1-3.7-8.4-7.4-12.7-10.9-2.8-2.2-5.6-4.5-8.4-6.6-4.4-3.4-9-6.7-13.6-9.9-2.8-1.9-5.6-3.8-8.4-5.6-8.5-5.5-17.3-10.7-26.4-15.5-5.3-2.9-11.2-8.7-6.3-12,2-1.4,5.2-1.4,7.4-2.7,3.2-1.9,3.2-5.6,4.4-8.6,2.5-5.7,11.6-9,18.8-6.7,7.1,2.2,10.8,9.6,7.5,15,2.3,3.1,10,13.5,16.7,21.3,3.3,3.8,6.3,6.9,8.4,8.3.2.2.5.3.7.4,3.5,1.8,7.8,2.9,12,2.9,2.9,0,5.7-.5,8.2-1.6,0,0,.1,0,.2-.1,4.5-2,8.1-5.9,12.7-6.8.8-.2,1.7-.2,2.6-.2,2.2.1,4.1.9,5.8,2,4.6,3,7.9,8.6,12.8,10.1,1.2.4,2.6.5,4,.3,1.7-.2,3.1-1,4.4-1.9,1-.8,2-1.6,2.8-2.5,3.7-3.7,7-7.6,9.9-11.7,3.3-4.6,6.1-9.4,8.4-14.4,2.7-5.9,4.7-11.9,5.9-18.1,1.5-7.8,1.8-15.9,5.6-23.2,3.1-6,8.5-11.3,15.3-15.1,4.5-2.5,9.6-4.2,14.7-6,8.4-2.9,16.9-5.8,25.3-8.7.9-.3,1.9-.6,2.9-.6,1.7,0,3,.9,4.3,1.7,9,5.8,18,11.7,27,17.5,4,2.6,8.2,5.3,10.4,9,9,14.8-17.2,30.9-11.6,46.6,1,2.9,3.1,5.5,3.8,8.5h0Z"/>
      <polygon class="st0" points="389.7 251.8 354.1 231.1 354.1 216.2 332 202.8 332 229.8 367.5 250.8 367.5 273.7 389.7 251.8"/>
      <polygon class="st0" points="323.2 211.5 309.8 229.8 323.2 229.8 323.2 211.5"/>
      <polygon class="st0" points="367.5 273.7 301 273.7 332 284.3 367.5 273.7"/>
    </g>
    <path class="st0" d="M178.1,599.5c-4.6,0-9.1-.5-13-2.1-1.8-.7-3.4-1.6-4.9-2.7-3-2.3-4.7-5.1-6.3-7.8l-.7-1.1c-.7-1.1-1.3-2.3-2.1-3.4-1.4-2.2-3.3-4.4-5.6-6.9-2-2.1-4.3-4.2-6.5-6.2-1.4-1.3-2.7-2.5-4-3.8-3.4-3.3-7.2-7.3-9.6-11.9-.8-1.4-1.4-2.9-1.8-4.3-.6-2-.9-4.1-1-6.3,0-4.2.8-8.3,1.7-11.9.3-1.2.7-2.5,1-3.7.5-2.1,1.1-4.2,1.6-6.3.8-3.7,1.1-6.7,1-9.4,0-.6,0-1.2-.1-1.8-.3-2.4-.9-5-1.8-7.8-.2-.7-.5-1.3-.7-2-1.3-3.5-3.1-7.1-4.7-10.6-5.2-11-10.7-22.3-4.6-33.2.8-1.4,1.8-2.8,2.7-4.2,2.8-4.1,5.5-8,3.5-11.7-.6-1-1.6-2.2-2.5-3.3-2-2.3-3.8-4.5-3.5-6.7.1-1,.8-2,1.8-2.7,2.7-1.8,6.3-.7,9.5.3.4.1.8.3,1.2.4,3.4,1,7.3,1.2,10.9.5,1.7-.3,3.3-.8,4.7-1.5,1.1-.5,2.2-1.2,3.3-1.9,2.1-1.5,4-3.3,5.8-5.1l16.1-15.7c4.2-4.2,8.5-8.3,12.7-12.4,1.9-1.8,3.8-3.7,5.6-5.5l2.8-2.7c4.2-4.2,8.5-8.3,12.7-12.4,1.6-1.6,3.3-3.2,4.9-4.8l2.4-2.4c.3-.3.7-.7,1-1.1,2.2-3,4-8.1,5.8-13.6,1.8-5.4,3.9-11.5,6.8-16.7,2.2-3.8,4.5-6.6,7.1-8.7l.8-.6.7.7c.4.5.9.9,1.5,1.4,3.3,3,7.6,5.2,12.3,6.6.6.2,1.2.3,1.8.5,2.6.6,4.5.6,5.8,0h0c1-.6,1.6-1.6,2.1-3.3,1.4-5.6.6-11.3-2.6-17.5-1.9-3.7-4.7-7.5-8.2-11.4-3.4-3.7-7.5-7.5-12.6-11.6l-.8-.6c-1-.8-2.1-1.7-3.1-2.5-1.5-1.2-3-2.4-4.5-3.6-4-3.3-8.8-7.2-12.8-11.3-3.3-3.3-5.9-6.4-8-9.6-.2-.3-.4-.6-.6-.9-2.6-4.2-4.2-8.3-4.9-12.5-1.2-8.1,1.2-16.2,3.6-24.1.4-1.3.8-2.7,1.2-4,1-3.4,2-7.5,2.4-11.4.5-5.1-.3-9.5-2.3-13.5,0-.1,0-.1,0-.2-.9-1.7-2.1-3.4-3.2-5-1.4-2-2.8-4-3.8-6.2-3.5-7.6-1.5-15.6.5-23.4.5-2,1-4.1,1.4-6.1.5-2.2.8-4.5,0-6.6-.7-2.1-2.5-3.9-4.5-5.9-.9-.9-1.9-1.8-2.8-2.8-2.7-2.6-5.5-5.2-8.4-7.9-4.2-3.8-8.5-7.4-12.7-10.9-2.8-2.2-5.6-4.5-8.4-6.6-4.4-3.4-9-6.7-13.6-9.8-2.8-1.9-5.6-3.8-8.4-5.6-8.5-5.5-17.3-10.7-26.3-15.5-4.2-2.2-8.5-6.1-8.7-9.7,0-1.2.3-2.8,2.3-4.2,1.2-.9,2.8-1.2,4.2-1.6,1.2-.3,2.3-.6,3.2-1.1,1.9-1.1,2.4-3,3-5.2.3-1,.5-1.9.9-2.9,2.7-6.2,12.4-9.8,20.1-7.3,4.1,1.3,7.4,4.3,8.8,8,1,2.7.9,5.5-.3,8l.2.3c2.9,4,9.8,13.2,16,20.4,3.6,4.2,6.4,6.9,8.2,8.1.2.2.4.3.6.4,3.5,1.8,7.6,2.8,11.5,2.8,2.8,0,5.5-.5,7.7-1.5h.2c1.7-.9,3.3-1.9,4.8-3,2.5-1.7,5.1-3.4,8.2-4,1-.2,1.9-.2,2.9-.2,2.2.1,4.3.9,6.3,2.2,2,1.3,3.7,3,5.3,4.6,2.3,2.3,4.5,4.5,7.2,5.4,1.2.4,2.3.5,3.5.3,1.3-.2,2.6-.7,3.9-1.6.8-.6,1.7-1.3,2.7-2.4,3.6-3.6,6.9-7.6,9.8-11.6,3.2-4.5,6-9.3,8.3-14.2,2.7-5.8,4.6-11.8,5.8-17.9.4-2,.7-4,1-6,.9-5.8,1.8-11.9,4.7-17.5,3.2-6.2,8.8-11.7,15.8-15.5,4.7-2.5,9.8-4.3,14.8-6,6.8-2.3,13.6-4.7,20.5-7l4.8-1.7c1-.3,2-.7,3.2-.7,2,0,3.7,1.1,4.9,1.9l27,17.5c3.9,2.5,8.3,5.4,10.8,9.4,5.1,8.3-.1,16.8-5.1,25.1-4.4,7.2-8.9,14.7-6.4,21.8.4,1.1,1,2.3,1.6,3.4.9,1.6,1.8,3.3,2.2,5.2,1.3,5.8-2.6,10.9-6.3,15.9-.6.7-1.1,1.5-1.7,2.2-2.6,3.6-4.4,6.7-4.6,10-.7,9.4,11.8,16.4,19.4,19.7,1.4.6,2.9,1.2,4.3,1.9,9.2,3.9,18.7,7.9,23.4,15.2,8.8,13.5-3.7,28.8-13.7,41l-.3.4c-4.1,5.1-7.9,10.5-7.3,16.1.4,3.6,2.5,7,4.6,10.4l.5.8c8.6,13.9,28.8,48.6,31.3,70.5l.2,1.5-1.4-.2c-6.2-1.1-20.2,9.1-23,13.8-2.8,4.8-2.8,10.5-2.7,15.5,0,6.5.7,13.2,6.4,17.2,1.1.8,2.5,1.4,3.8,2.1,2.2,1.1,4.6,2.3,6.2,4.1,3.4,4,1.7,8.7,0,13.2-.7,1.8-1.4,3.6-1.7,5.3-1.1,5.7,2,11.2,5.1,17,3.2,5.9,6.5,11.9,5.4,18.4-.5,2.9-1.9,5.6-3.3,8.2-1.6,3-3,5.8-3.2,8.9-.3,5.9,7.5,9.9,15.9,14.1,6.4,3.2,13,6.6,16.2,11.2,11.5,16.5-.7,30-10.5,40.8-1.4,1.6-2.8,3.1-4.1,4.6h0c-4.4,5.2-9.8,10.7-16.2,16.6-3.4,3.1-7.1,6.4-11.4,10.1-3.4,3-7,5.9-10.4,8.8l-3.4,2.8c-3.5,3-7.7,6.5-11.8,10.1-4.9,4.2-9,8-12.7,11.6-3.6,3.5-6.8,6.8-9.6,10-3.5,4-6.5,7.7-9.1,11.5-.4.6-.8,1.2-1.2,1.7-2.2,3.4-4.8,6.8-8.5,8.7-1.8,1-3.8,1.4-5.8,1.4-1.8,0-3.6-.5-5.2-.9-.5-.1-.9-.2-1.4-.4h-.3c-4.4-1.2-9.4-1.1-14,0-3.7.9-7,2.4-9.5,4.4h-.2c0,.1-.2.2-.2.2-6.6,1.8-17.5,4.2-32.3,7-21.2,4-45.5,8-58.1,10.1l-4.3.7c-4.4.7-9.4,1.4-14.4,1.4h0s0,0,0,0ZM121.3,428.8c-.9,0-1.6.2-2.3.6-.8.5-.9,1-.9,1.1-.2,1.2,1.5,3.2,3,5,1,1.2,2.1,2.4,2.8,3.7,2.8,4.8-.6,9.7-3.6,14-1,1.4-1.8,2.7-2.6,4-5.5,9.9-.6,20.2,4.6,31.2,1.7,3.5,3.4,7.2,4.8,10.8.3.7.5,1.4.7,2.1,1,3,1.6,5.7,1.9,8.3,0,.7.1,1.3.2,2,.1,2.9-.2,6.1-1,10-.5,2.2-1,4.3-1.6,6.4-.3,1.2-.7,2.5-1,3.7-.8,3.4-1.7,7.4-1.6,11.3,0,2,.3,3.9.9,5.7.4,1.3.9,2.6,1.6,3.9,2.3,4.3,5.9,8.2,9.2,11.3,1.3,1.3,2.7,2.5,4,3.8,2.2,2,4.5,4.2,6.6,6.3,2.5,2.5,4.4,4.9,5.9,7.2.8,1.2,1.5,2.4,2.1,3.5l.6,1.1c1.5,2.5,3.1,5.2,5.8,7.2,1.3,1,2.8,1.8,4.4,2.4,7.7,3.1,18.1,2,26.2.6l4.3-.7c12.6-2,36.8-6.1,58.1-10.1,14.6-2.8,25.3-5.1,31.9-6.9,2.8-2.2,6.3-3.8,10.2-4.7,4.9-1.2,10.3-1.2,15,0h.3c.5.2,1,.3,1.4.5,1.6.4,3.1.8,4.7.9,1.7,0,3.3-.3,4.8-1.2,3.2-1.7,5.5-4.8,7.6-8,.4-.6.8-1.2,1.2-1.8,2.7-3.9,5.7-7.7,9.3-11.7,2.9-3.3,6.1-6.6,9.8-10.2,3.7-3.6,7.8-7.4,12.8-11.7,4.2-3.6,8.3-7.1,11.9-10.1l3.4-2.8c3.4-2.9,7-5.8,10.4-8.8,4.3-3.7,8-7,11.4-10.1,6.4-5.9,11.6-11.3,16-16.4h0c1.3-1.5,2.7-3,4.1-4.6,9.7-10.8,20.8-23.1,10.3-38.1-2.8-4.1-9.2-7.3-15.3-10.5-8.6-4.4-17.5-8.9-17.1-16.2.2-3.5,1.8-6.7,3.4-9.8,1.3-2.6,2.6-5,3.1-7.6,1-5.7-2-11.2-5.2-16.9-3.2-5.9-6.6-12-5.4-18.4.3-1.9,1.1-3.8,1.8-5.7,1.6-4.2,3-7.9.4-11-1.3-1.5-3.3-2.5-5.4-3.6-1.4-.7-2.8-1.4-4-2.2-6.6-4.5-7.3-12.2-7.4-19,0-5.3-.2-11.3,3-16.6,3-5,16.2-14.7,23.8-14.9-3.1-21.5-22.5-54.8-30.8-68.3l-.5-.8c-2.2-3.5-4.5-7.2-4.9-11.3-.7-6.3,3.4-12.2,7.8-17.7l.3-.4c10-12.3,21.4-26.3,13.5-38.4-4.4-6.7-13.5-10.6-22.4-14.4-1.5-.6-2.9-1.2-4.4-1.9-8.1-3.6-21.5-11.1-20.7-21.9.3-4,2.6-7.7,5.1-11.1.6-.8,1.1-1.5,1.7-2.2,3.6-4.7,6.9-9.2,5.9-14.1-.3-1.5-1.1-3-2-4.6-.6-1.2-1.3-2.4-1.8-3.7-2.9-8,1.9-16,6.6-23.6,4.9-8.1,9.5-15.7,5.1-22.8-2.2-3.5-6.4-6.3-10.1-8.7l-27-17.5c-1.3-.8-2.4-1.5-3.7-1.5s-1.7.3-2.5.6l-4.8,1.7c-6.8,2.4-13.6,4.7-20.5,7-4.9,1.7-10,3.4-14.5,5.9-6.6,3.6-11.9,8.8-14.9,14.6-2.7,5.3-3.6,11.1-4.5,16.8-.3,2-.6,4.1-1,6.1-1.2,6.2-3.2,12.4-6,18.4-2.3,5-5.2,9.9-8.5,14.6-3,4.1-6.3,8.1-10,11.9-1.1,1.1-2,2-3,2.7-1.6,1.1-3.2,1.8-4.8,2-1.6.2-3,.1-4.5-.4-3.2-1-5.7-3.5-8.1-5.9-1.6-1.6-3.2-3.2-5-4.4-1.7-1.2-3.4-1.8-5.2-1.9-.8,0-1.6,0-2.4.2-2.6.5-4.9,2-7.4,3.7-1.6,1.1-3.3,2.2-5.1,3,0,0-.2.1-.3.1-2.5,1.1-5.4,1.7-8.6,1.6-4.3,0-8.7-1.1-12.5-3.1-.3-.1-.5-.3-.8-.5-2-1.3-4.9-4.1-8.6-8.5-6.2-7.2-13.1-16.5-16.1-20.5l-1.1-1.5.4-.6c1.2-2,1.4-4.4.5-6.7-1.2-3.1-3.9-5.5-7.4-6.6-6.6-2.1-15.2,1-17.4,6.1-.3.8-.6,1.7-.8,2.6-.6,2.3-1.4,4.9-4,6.5-1.2.7-2.5,1-3.8,1.3-1.3.3-2.6.6-3.5,1.3-1.2.9-1.3,1.7-1.3,2.3.1,2.5,4,6,7.6,7.9,9,4.8,17.9,10.1,26.5,15.6,2.8,1.8,5.6,3.7,8.4,5.6,4.6,3.2,9.2,6.5,13.7,9.9,2.8,2.1,5.7,4.4,8.4,6.6,4.3,3.5,8.6,7.1,12.8,11,2.9,2.6,5.8,5.3,8.4,7.9.9.9,1.9,1.8,2.8,2.8,2.2,2.2,4.1,4.3,5,6.8.9,2.6.6,5.3,0,7.8-.4,2-.9,4.1-1.4,6.2-1.9,7.4-3.8,15.1-.6,22,.9,2,2.2,3.9,3.7,5.8,1.2,1.7,2.4,3.4,3.4,5.2,0,0,0,.2.1.3,2.2,4.2,3,9,2.5,14.6-.4,4.1-1.4,8.3-2.5,11.9-.4,1.3-.8,2.7-1.2,4-2.3,7.7-4.7,15.6-3.5,23.2.6,4,2.1,7.8,4.6,11.7.2.3.4.6.5.9,2,3,4.5,6,7.7,9.2,4,4,8.7,7.9,12.7,11.1,1.5,1.2,3,2.4,4.5,3.5,1.1.8,2.1,1.7,3.2,2.5l.8.6c5.2,4.2,9.4,8.1,12.9,11.9,3.7,4,6.6,8,8.6,11.8,3.4,6.6,4.4,13,2.8,19.1-.4,1.6-1.1,3.5-3.1,4.6,0,0-.1,0-.2,0-1.8.9-4.2,1-7.3.2-.6-.2-1.3-.3-1.9-.5-5-1.5-9.6-3.9-13.2-7.1-.3-.3-.6-.6-.9-.8-2.1,1.8-4,4.2-5.8,7.4-2.8,5-4.8,11-6.7,16.3-1.9,5.7-3.7,11-6.2,14.2-.4.5-.8,1-1.2,1.4l-2.4,2.4c-1.6,1.6-3.3,3.2-4.9,4.8-4.2,4.1-8.5,8.3-12.7,12.4l-2.8,2.7c-1.9,1.8-3.8,3.7-5.6,5.5-4.2,4.1-8.5,8.3-12.7,12.4l-16.1,15.7c-1.8,1.7-3.8,3.7-6,5.3-1.2.9-2.4,1.6-3.6,2.1-1.6.8-3.3,1.3-5.2,1.7-4,.8-8.2.6-12-.5-.4-.1-.8-.3-1.3-.4-1.8-.5-3.7-1.2-5.3-1.2h0c0,0,0,0,0,0Z"/>
  </g>
  <g>
    <path class="st0" d="M76.3,816l-2.4-3.7c-6.7,3.3-14.3,5.1-22.3,5.1-28.4,0-51.6-23-51.6-51.6s23.1-51.4,51.6-51.4,51.6,23,51.6,51.4-2.9,19.6-7.9,27.6l14,22.7h-33ZM55.6,784l-9.9-15.3h24c.1-1,.3-1.9.3-2.9,0-10.1-8.3-18.4-18.4-18.4s-18.4,8.3-18.4,18.4,8.3,18.6,18.4,18.6,2.7-.1,4-.4Z"/>
    <path class="st0" d="M115.7,716h33.4v100h-33.4v-100Z"/>
    <path class="st0" d="M159.9,716h33.9l22.4,31.7h1.1l22.4-31.7h33.9v100h-33.4v-52.3h-.9l-22,29h-1.1l-22-29h-.9v52.3h-33.4v-100Z"/>
    <path class="st0" d="M283.6,716h33.9l22.4,31.7h1.1l22.4-31.7h33.9v100h-33.4v-52.3h-.9l-22,29h-1.1l-22-29h-.9v52.3h-33.4v-100Z"/>
    <path class="st0" d="M408.1,716h33.4v100h-33.4v-100Z"/>
    <path class="st0" d="M478.3,742.4h-29.7v-26.4h92.9v26.4h-29.7v73.6h-33.4v-73.6Z"/>
  </g>
</svg>